<svg width="21" height="15" viewBox="0 0 21 15" fill="none" xmlns="http://www.w3.org/2000/svg">
<path d="M4.42149 14.4356C5.50378 14.4356 6.38115 13.5583 6.38115 12.476C6.38115 11.3937 5.50378 10.5163 4.42149 10.5163C3.33919 10.5163 2.46182 11.3937 2.46182 12.476C2.46182 13.5583 3.33919 14.4356 4.42149 14.4356Z" fill="#C7C7C7"/>
<path d="M17.6681 2.15701C17.3836 1.62474 16.8285 1.29297 16.225 1.29432H13.9336V4.35927C13.9336 4.70064 14.2333 4.97678 14.5748 4.97678H19.1774L17.6681 2.15701Z" fill="#C7C7C7"/>
<path d="M15.5007 10.5163C14.4183 10.5163 13.5409 11.3937 13.5409 12.4761C13.5409 13.5585 14.4183 14.4359 15.5007 14.4359C16.5831 14.4359 17.4605 13.5585 17.4605 12.4761C17.4605 12.4761 17.4605 12.476 17.4605 12.476C17.4592 11.3942 16.5825 10.5175 15.5007 10.5163Z" fill="#C7C7C7"/>
<path d="M20.6466 7.06404L19.6335 5.7729H14.5748C13.7943 5.7729 13.1374 5.13961 13.1374 4.35918V0.589641C13.1447 0.271307 12.8925 0.0074144 12.5742 0.000149016C12.5629 -9.97985e-05 12.5516 -5.01722e-05 12.5403 0.000397694H0.634577C0.293153 0.000397694 0 0.248217 0 0.589641V11.4847C0 11.8262 0.293153 12.0928 0.634577 12.0928H1.69119C1.89637 10.585 3.285 9.52895 4.79282 9.73407C6.01972 9.90103 6.98457 10.8659 7.15153 12.0928H12.7706C12.9759 10.5849 14.3646 9.529 15.8725 9.73422C17.0993 9.90123 18.064 10.866 18.231 12.0928H20.3654C20.7068 12.0928 21 11.8262 21 11.4847V8.07075C20.9966 7.70534 20.8724 7.35138 20.6466 7.06404Z" fill="#C7C7C7"/>
</svg>
