<svg width="24" height="24" fill="white" viewBox="0 0 24 24" xmlns="http://www.w3.org/2000/svg">
<path d="M11.7145 22.3777L12.0346 22.6553L12.3609 22.3852C13.7603 21.2268 15.9105 19.3458 17.8187 17.4619C18.7725 16.5203 19.6721 15.5719 20.3888 14.7086C21.0941 13.859 21.6617 13.0463 21.9022 12.3825C22.9848 9.3955 22.7974 5.73779 19.6122 3.72888C17.6001 2.45985 15.589 2.78969 14.1306 3.40281C13.4019 3.70916 12.7982 4.09036 12.3774 4.39363C12.2533 4.4831 12.1445 4.56621 12.0524 4.63922C12.0244 4.61489 11.9949 4.5894 11.9638 4.5629C11.7025 4.33971 11.334 4.04131 10.9066 3.74188C10.4805 3.44341 9.98677 3.13747 9.47528 2.90464C8.96903 2.6742 8.41214 2.4999 7.86869 2.5C6.19655 2.5003 4.01031 3.18253 2.76019 5.02228C1.07992 7.49509 1.07994 11.172 2.76022 13.6446C3.42257 14.6193 5.07482 16.289 6.82054 17.9439C8.58336 19.615 10.4931 21.3185 11.7145 22.3777Z" class="favorite-icon" fill="#00A0AB" stroke="#2C2C2C"/>
</svg>
